<svg width="106" height="100" viewBox="0 0 106 100" fill="none" xmlns="http://www.w3.org/2000/svg">
<path fill-rule="evenodd" clip-rule="evenodd" d="M102.671 1.76658C95.3894 51.6072 50.6692 75.8162 3.98364 81.3208C3.18197 81.4169 2.60557 82.1447 2.70162 82.9464C2.79767 83.7481 3.52543 84.3244 4.3271 84.2283C52.3205 78.5723 98.0825 53.4248 105.567 2.1877C105.686 1.38972 105.131 0.647156 104.33 0.528936C103.532 0.410717 102.789 0.964907 102.671 1.76658Z" fill="#001A3D"/>
<path fill-rule="evenodd" clip-rule="evenodd" d="M5.03171 82.672C7.10794 81.1537 9.73464 79.2769 10.0265 79.0552C17.9361 73.0482 24.4899 66.1361 30.2605 58.027C30.7297 57.3694 30.5745 56.4532 29.9169 55.984C29.2593 55.5148 28.3431 55.67 27.874 56.3276C22.2807 64.1929 15.9265 70.8982 8.25327 76.7242C7.80625 77.0641 1.89888 81.2793 0.768409 82.2213C0.302919 82.6055 0.15894 82.9676 0.13308 83.0563C-0.022083 83.5218 0.070247 83.8875 0.195855 84.1535C0.339935 84.4527 0.698194 84.8887 1.39273 85.1103C2.12052 85.3394 3.73872 85.4429 4.1451 85.502C10.274 86.4108 17.1936 86.891 23.4925 88.6348C29.4995 90.2972 34.9486 93.1123 38.4435 98.7536C38.8683 99.4407 39.7734 99.6513 40.4606 99.2265C41.1477 98.8016 41.3584 97.8965 40.9335 97.2094C37.0249 90.9031 30.9882 87.6705 24.2756 85.8122C18.0136 84.0796 11.157 83.555 5.03171 82.672Z" fill="#001A3D"/>
</svg>
