<svg width="20" height="18" viewBox="0 0 20 18" fill="none" xmlns="http://www.w3.org/2000/svg">
<path fill-rule="evenodd" clip-rule="evenodd" d="M16.5177 0H10.5977C8.94087 0 7.59772 1.34315 7.59772 3V14.28C7.59772 15.9369 8.94087 17.28 10.5977 17.28H16.5177C18.1746 17.28 19.5177 15.9369 19.5177 14.28V3C19.5177 1.34315 18.1746 0 16.5177 0ZM9.13773 8H9.95773C10.2339 8 10.4577 8.22386 10.4577 8.5V8.82C10.4577 9.09614 10.2339 9.32 9.95773 9.32H9.13773V8ZM16.5177 15.8C17.3461 15.8 18.0177 15.1284 18.0177 14.3V3C18.0177 2.17157 17.3461 1.5 16.5177 1.5H10.5977C9.76929 1.5 9.09772 2.17157 9.09772 3V6.48H9.91772C11.0223 6.48 11.9177 7.37543 11.9177 8.48V8.8C11.9177 9.90457 11.0223 10.8 9.91772 10.8H9.09772V14.3C9.09772 15.1284 9.76929 15.8 10.5977 15.8H16.5177Z" fill="#001A3D"/>
<path fill-rule="evenodd" clip-rule="evenodd" d="M0.00771985 3.42C-0.11276 1.68248 1.19112 0.173186 2.92772 0.04C4.65648 0.188623 5.94452 1.6995 5.81772 3.43V12.7C5.82907 13.181 5.69677 13.6545 5.43772 14.06L3.56772 16.95C3.43526 17.1875 3.18464 17.3347 2.91272 17.3347C2.6408 17.3347 2.39018 17.1875 2.25772 16.95L0.38772 14.06C0.134545 13.6519 0.00274391 13.1802 0.00771985 12.7V3.42ZM4.16772 13.24C4.26817 13.078 4.32022 12.8906 4.31772 12.7L4.33772 3.42C4.34772 2.4 3.69772 1.54 2.92772 1.54C2.16772 1.54 1.51772 2.42 1.51772 3.42V12.7C1.5092 12.8887 1.55427 13.0759 1.64772 13.24L2.90772 15.24L4.16772 13.24Z" fill="#001A3D"/>
<path d="M2.91772 2.18C2.50351 2.18 2.16772 2.51579 2.16772 2.93V6.39C2.16772 6.80421 2.50351 7.14 2.91772 7.14C3.33194 7.14 3.66773 6.80421 3.66773 6.39V2.93C3.67044 2.73027 3.5923 2.53792 3.45105 2.39667C3.30981 2.25543 3.11746 2.17728 2.91772 2.18Z" fill="#001A3D"/>
<path d="M16.2977 3.14H12.9477C12.5335 3.14 12.1977 3.47579 12.1977 3.89C12.1977 4.30421 12.5335 4.64 12.9477 4.64H16.2977C16.7119 4.64 17.0477 4.30421 17.0477 3.89C17.0477 3.47579 16.7119 3.14 16.2977 3.14Z" fill="#001A3D"/>
</svg>
