<svg width="126" height="75" viewBox="0 0 126 75" fill="none" xmlns="http://www.w3.org/2000/svg">
<path fill-rule="evenodd" clip-rule="evenodd" d="M90.8479 71.3506C102.098 71.622 113.594 71.0792 124.35 74.9285C124.991 75.1555 125.697 74.8248 125.929 74.1833C126.155 73.5417 125.825 72.8361 125.184 72.6041C114.176 68.666 102.418 69.1595 90.9071 68.8832C90.2265 68.8634 89.6594 69.4063 89.6446 70.0873C89.6248 70.7683 90.1673 71.3309 90.8479 71.3506Z" fill="#001A3D"/>
<path fill-rule="evenodd" clip-rule="evenodd" d="M89.8369 55.0076C93.3435 51.7792 97.1706 49.3606 101.797 48.1619C102.458 47.9911 102.852 47.3175 102.684 46.6582C102.512 45.9989 101.836 45.6026 101.18 45.7733C96.1497 47.0762 91.9823 49.6828 88.1699 53.1911C87.6669 53.652 87.6323 54.4332 88.0959 54.9346C88.5546 55.4355 89.3388 55.4685 89.8369 55.0076Z" fill="#001A3D"/>
<path fill-rule="evenodd" clip-rule="evenodd" d="M80.0818 19.7608C81.6896 14.246 84.8559 9.93185 89.7089 6.81642C90.281 6.44877 90.4487 5.68485 90.0788 5.1119C89.7138 4.53895 88.9493 4.37214 88.3772 4.73979C83.0064 8.18931 79.4949 12.9634 77.7145 19.0694C77.5221 19.7228 77.9019 20.4087 78.5529 20.5992C79.2089 20.7902 79.8944 20.4141 80.0818 19.7608Z" fill="#001A3D"/>
<path fill-rule="evenodd" clip-rule="evenodd" d="M24.6718 12.2764C23.715 13.4031 22.8568 14.6171 22.1269 15.9095C21.8014 16.485 21.2293 17.7078 21.1405 18.7565C21.0419 19.8738 21.4216 20.8164 22.3981 21.3128C23.6952 21.9711 24.7309 21.9025 25.5299 21.5043C26.2993 21.1218 26.9009 20.3702 27.2807 19.3625C28.0057 17.4364 27.8972 14.4927 27.5174 12.8129C28.5383 11.7588 29.6579 10.8029 30.8563 9.95306C39.7831 3.624 52.8773 5.95774 62.9531 15.421C66.4795 18.7343 68.176 25.6926 69.0588 33.2001C70.4348 44.8895 69.6507 57.9454 69.5422 61.7704C69.5175 62.715 69.6063 63.2756 69.6556 63.3876C69.8874 63.9383 70.2967 64.0815 70.5828 64.1357C70.9971 64.2098 71.3275 64.1308 71.5938 63.9926C71.9538 63.8031 72.2498 63.4695 72.3879 62.9548C72.4618 62.6705 72.4815 62.2748 72.4717 61.8528C72.4618 61.5602 72.4026 61.2404 72.4618 61.0307C72.8465 59.6874 73.3101 58.3757 73.7638 57.0546C75.2779 52.6136 77.2359 48.452 79.4109 44.2953C86.3205 31.0874 93.0031 17.1319 104.332 7.06909C104.84 6.61754 104.889 5.83684 104.435 5.32755C103.987 4.81826 103.207 4.77187 102.694 5.22391C91.1389 15.4856 84.2737 29.6815 77.226 43.1509C75.3766 46.6868 73.68 50.2276 72.2694 53.9313C72.4125 47.3797 72.3582 38.3107 71.1598 30.2865C70.0945 23.1501 68.0675 16.8432 64.6398 13.6222C53.6022 3.25536 39.206 1.00652 29.431 7.94011C28.3854 8.68233 27.3892 9.49858 26.462 10.3839C21.3477 1.14323 10.3988 -2.56046 0.722442 1.85927C0.101023 2.14204 -0.170227 2.87439 0.110892 3.49373C0.396942 4.11306 1.12684 4.38647 1.74825 4.1037C10.4678 0.1212 20.3564 3.67533 24.6718 12.2764ZM25.3869 15.3701C24.9874 15.9347 24.6175 16.52 24.2723 17.125C24.0898 17.4497 23.7741 18.074 23.641 18.685C23.6114 18.8281 23.6065 19.0521 23.6065 19.1557C23.9468 19.3235 24.213 19.4045 24.43 19.2954C24.7013 19.1612 24.8394 18.8453 24.9726 18.4925C25.308 17.6072 25.4165 16.4336 25.3869 15.3701Z" fill="#001A3D"/>
</svg>
