<svg width="488" height="256" viewBox="0 0 488 256" fill="none" xmlns="http://www.w3.org/2000/svg">
<g clip-path="url(#clip0_62_311)">
<rect x="236" y="122" width="16" height="12" rx="1" stroke="#BBBBBB" stroke-width="2"/>
<path fill-rule="evenodd" clip-rule="evenodd" d="M245.571 131.429L242 127.5L237 133H244H247H251L247.5 129.5L245.571 131.429Z" fill="#BBBBBB"/>
<circle cx="245.5" cy="126" r="1.5" fill="#BBBBBB"/>
<path d="M486.462 2.88698C486.952 2.63192 487.142 2.02805 486.887 1.53819C486.632 1.04832 486.028 0.85797 485.538 1.11302L486.462 2.88698ZM274.268 111.113C273.778 111.368 273.588 111.972 273.843 112.462C274.098 112.952 274.702 113.142 275.192 112.887L274.268 111.113ZM213.732 144.887C214.222 144.632 214.412 144.028 214.157 143.538C213.902 143.048 213.298 142.858 212.808 143.113L213.732 144.887ZM1.53819 253.113C1.04832 253.368 0.85797 253.972 1.11302 254.462C1.36808 254.952 1.97195 255.142 2.46181 254.887L1.53819 253.113ZM2.46181 1.11302C1.97195 0.85797 1.36808 1.04832 1.11302 1.53819C0.85797 2.02805 1.04832 2.63192 1.53819 2.88698L2.46181 1.11302ZM212.808 112.887C213.298 113.142 213.902 112.952 214.157 112.462C214.412 111.972 214.222 111.368 213.732 111.113L212.808 112.887ZM275.192 143.113C274.702 142.858 274.098 143.048 273.843 143.538C273.588 144.028 273.778 144.632 274.268 144.887L275.192 143.113ZM485.538 254.887C486.028 255.142 486.632 254.952 486.887 254.462C487.142 253.972 486.952 253.368 486.462 253.113L485.538 254.887ZM485.538 1.11302L274.268 111.113L275.192 112.887L486.462 2.88698L485.538 1.11302ZM212.808 143.113L1.53819 253.113L2.46181 254.887L213.732 144.887L212.808 143.113ZM1.53819 2.88698L212.808 112.887L213.732 111.113L2.46181 1.11302L1.53819 2.88698ZM274.268 144.887L485.538 254.887L486.462 253.113L275.192 143.113L274.268 144.887Z" fill="#BBBBBB"/>
</g>
<rect x="1" y="1" width="486" height="254" stroke="#151439" stroke-opacity="0.4" stroke-width="2" stroke-linejoin="round"/>
<defs>
<clipPath id="clip0_62_311">
<rect x="2" y="2" width="484" height="252" fill="white"/>
</clipPath>
</defs>
</svg>
