<svg width="93" height="93" viewBox="0 0 93 93" fill="none" xmlns="http://www.w3.org/2000/svg">
<path fill-rule="evenodd" clip-rule="evenodd" d="M29.0532 39.6668C28.9735 39.3198 28.8921 38.9719 28.8083 38.6245C27.9509 35.0867 27.1122 31.5575 26.5059 27.9638C26.3588 27.0933 26.1047 25.4245 25.5149 24.2721C25.093 23.448 24.5012 22.8378 23.8116 22.5119C23.3724 22.304 22.6481 22.1293 21.8524 22.7174C21.7186 22.8162 21.5152 23.0031 21.3082 23.2751C20.9739 23.7152 20.4784 24.5714 20.4165 24.6942C19.5076 26.4788 18.6458 28.1898 17.8856 30.0442C17.1858 31.7505 16.3907 33.4125 15.7136 35.13C14.7005 37.6996 13.8707 40.266 13.3193 42.9772C13.1144 43.9837 13.766 44.9668 14.7725 45.1718C15.7783 45.3763 16.7617 44.726 16.9666 43.7194C17.4749 41.2225 18.2429 38.8618 19.1767 36.4955C19.8472 34.7936 20.6361 33.1465 21.3292 31.4558C21.7805 30.356 22.2704 29.3096 22.7847 28.2667L22.8354 28.5829C23.4568 32.2636 24.3129 35.8779 25.1911 39.5007C25.5192 40.8569 25.8032 42.218 26.1532 43.5693C26.1578 43.7159 26.1813 44.3891 26.2374 44.6503C26.3305 45.0853 26.5199 45.4162 26.7205 45.6483C27.2299 46.2389 27.9135 46.5776 28.9228 46.2288C29.6785 45.9675 30.4429 45.302 31.0504 44.312C31.8856 42.9518 32.5084 40.8528 32.9225 39.9667C35.5416 34.3594 37.7243 28.5018 40.7624 23.0994C41.2661 22.2043 40.9482 21.0689 40.0531 20.5652C39.1575 20.0623 38.0214 20.3797 37.5184 21.2753C34.4341 26.7586 32.2083 32.6991 29.5493 38.3914C29.4085 38.6945 29.2438 39.1492 29.0532 39.6668Z" fill="#001A3D"/>
<path fill-rule="evenodd" clip-rule="evenodd" d="M56.4523 26.9978C54.3729 26.3323 52.3289 25.6044 50.1195 25.9128C47.8076 26.2363 45.8606 27.6081 44.2669 29.5051C42.2339 31.9252 40.7814 35.2168 39.7036 37.5352C39.1459 38.7359 38.2246 40.3172 37.6742 41.8882C37.2015 43.2394 37.0022 44.593 37.2521 45.7898C37.645 47.67 39.3078 48.8975 41.551 49.3153C44.1427 49.798 47.4225 49.1854 48.6966 48.4206C49.5776 47.8925 49.864 46.7481 49.3347 45.8675C48.8066 44.9865 47.663 44.7006 46.7821 45.2286C45.9739 45.7137 43.8766 45.9624 42.2321 45.6566C41.8653 45.5878 41.5206 45.4911 41.2337 45.3387C41.0843 45.2597 40.9293 45.1894 40.8956 45.0297C40.732 44.2438 41.0685 43.3511 41.439 42.4692C41.9546 41.2393 42.6405 40.0487 43.08 39.1037C44.0433 37.0302 45.2991 34.0635 47.1168 31.8989C48.0917 30.7385 49.22 29.7975 50.6352 29.5999C52.2772 29.3706 53.7703 30.0479 55.3171 30.5429C56.295 30.8566 57.3437 30.3166 57.6566 29.3381C57.9703 28.3602 57.4302 27.3115 56.4523 26.9978Z" fill="#001A3D"/>
<path fill-rule="evenodd" clip-rule="evenodd" d="M51.0502 35.1838C49.193 35.0535 47.2274 34.8837 45.4122 34.47C44.4106 34.2417 43.412 34.8691 43.183 35.8702C42.9547 36.8717 43.582 37.8703 44.5836 38.0985C46.5826 38.5547 48.7447 38.754 50.7889 38.8977C51.8132 38.9693 52.7042 38.1958 52.7758 37.1715C52.848 36.1463 52.0748 35.2567 51.0502 35.1838Z" fill="#001A3D"/>
<path fill-rule="evenodd" clip-rule="evenodd" d="M69.4562 48.1222C69.1966 46.0059 68.8579 43.8699 68.3758 41.8078C68.3362 41.64 67.7258 39.7545 67.2134 38.8681C66.8676 38.2704 66.4408 37.9291 66.1561 37.7836C65.3279 37.3602 64.5818 37.4785 63.9245 38.0766C63.2948 38.6504 62.7658 39.3295 62.2947 40.0665C62.5249 37.151 62.8935 34.2368 63.7541 31.4703C63.825 31.2418 63.84 31.1233 63.8435 31.1023C63.9331 30.4836 63.7292 30.1235 63.6605 29.9891C63.3236 29.3275 62.8034 29.0701 62.2755 28.9922C62.2113 28.9821 60.792 28.7662 60.2549 30.1888C60.2114 30.3035 59.9311 31.1393 59.8038 31.4544C59.6936 31.7286 59.6531 32.013 59.6742 32.2893C58.7709 36.0833 58.5497 40.0714 58.306 43.9479C58.2532 44.7855 58.1131 45.5938 57.8519 46.3911C57.7759 46.6241 57.5079 47.09 57.4115 47.341C57.2491 47.7661 57.2418 48.116 57.2576 48.3073C57.3393 49.3026 57.9237 49.7723 58.6128 49.971C58.9072 50.0565 59.5103 50.2067 60.2717 49.6807C61.9832 48.4996 63.0466 46.6667 63.9985 44.7439C64.2803 44.1752 64.548 43.5975 64.8399 43.0442C65.3486 45.322 65.6767 47.6854 65.9269 49.9978C65.9545 50.2518 66.344 52.6523 66.5617 53.1117C67.1047 54.2629 68.0838 54.2846 68.549 54.2219C69.2589 54.1257 70.0496 53.6869 70.7428 52.9273C71.6387 51.9438 72.4608 50.3278 72.8368 49.7067C75.3685 45.5268 77.9701 41.1287 79.6148 36.5188C79.9604 35.5513 79.4552 34.4861 78.4878 34.1405C77.5203 33.7949 76.4547 34.301 76.1095 35.2676C74.5471 39.6452 72.0558 43.8102 69.6528 47.7785C69.5975 47.8702 69.5316 47.9871 69.4562 48.1222Z" fill="#001A3D"/>
<path fill-rule="evenodd" clip-rule="evenodd" d="M84.6013 38.2374C83.413 41.3489 82.2416 44.4357 80.8069 47.499C80.371 48.4297 80.772 49.5387 81.7028 49.9746C82.6327 50.41 83.7417 50.009 84.1776 49.0783C86.2014 44.7581 87.7138 40.395 89.4679 35.9786C90.1467 34.2721 88.5667 33.5614 88.4681 33.5205C88.2508 33.4302 87.042 32.9766 86.2103 34.1999C86.1593 34.2745 85.8665 34.8449 85.7418 35.059C85.4554 35.5485 85.1477 36.009 84.8177 36.4717C84.4371 37.0048 84.3774 37.6702 84.6013 38.2374Z" fill="#001A3D"/>
<path fill-rule="evenodd" clip-rule="evenodd" d="M78.3006 57.0371C78.7695 56.6543 79.0426 56.0492 78.9749 55.4018C78.8672 54.3798 77.9507 53.6383 76.9287 53.7459C75.9851 53.8451 75.4798 54.3781 75.0886 55.175C74.636 56.0973 75.0179 57.2138 75.9406 57.6657C76.7837 58.0798 77.7896 57.795 78.3006 57.0371Z" fill="#001A3D"/>
<path fill-rule="evenodd" clip-rule="evenodd" d="M29.3625 68.3632C29.4191 67.9223 29.4615 67.5727 29.4675 67.4959C29.7524 63.8401 29.8903 60.1412 29.8097 56.4749C29.7871 55.4477 28.9353 54.6326 27.9081 54.6552C26.8809 54.6778 26.0658 55.5296 26.0884 56.5568C26.1666 60.099 26.0317 63.674 25.7568 67.207C25.7359 67.4763 25.3116 69.7176 25.3471 70.7885C25.38 71.7582 25.8079 72.3708 26.1095 72.6332C26.5886 73.0499 27.5379 73.3894 28.7832 72.922C30.4088 72.3122 33.5457 69.9119 34.0649 69.5126C35.0188 68.7772 35.9502 67.9611 36.8429 67.1589C38.5359 65.6369 40.0328 63.9431 41.5074 62.2152C42.1749 61.4336 42.0813 60.2583 41.2997 59.5909C40.5184 58.9247 39.3423 59.0178 38.6761 59.7991C37.3081 61.4018 35.9257 62.9787 34.3552 64.3902C33.531 65.1302 32.6725 65.8857 31.7924 66.5645C31.5278 66.7676 30.4585 67.6214 29.3625 68.3632Z" fill="#001A3D"/>
</svg>
