<svg width="22" height="22" viewBox="0 0 22 22" fill="none" xmlns="http://www.w3.org/2000/svg">
<path fill-rule="evenodd" clip-rule="evenodd" d="M21.7071 0.292892C21.9963 0.582031 22.0802 1.01808 21.9192 1.39392L13.3477 21.3939C13.1842 21.7755 12.8018 22.0164 12.387 21.9991C11.9722 21.9819 11.6112 21.7101 11.4799 21.3162L8.78086 13.2191L0.683778 10.5201C0.289903 10.3888 0.0181238 10.0278 0.000869481 9.61299C-0.0163848 9.19816 0.224476 8.81583 0.606086 8.65228L20.6061 0.0808537C20.9819 -0.0802218 21.418 0.00375274 21.7071 0.292892ZM3.81146 9.45449L9.88766 11.4799C10.1863 11.5794 10.4206 11.8137 10.5201 12.1123L12.5455 18.1885L19.0961 2.90394L3.81146 9.45449Z" fill="white"/>
<path fill-rule="evenodd" clip-rule="evenodd" d="M21.2072 2.20712L10.2072 13.2071L8.79297 11.7929L19.793 0.792908L21.2072 2.20712Z" fill="white"/>
</svg>
